<svg id="Layer_2" data-name="Layer 2" xmlns="http://www.w3.org/2000/svg" viewBox="0 0 288.12 77.85">
  <g id="Layer_1-2" data-name="Layer 1">
    <g>
      <path d="M75.02,0c-.94,0-1.87.05-2.8.14v-.14h-38.74C15.02,0,0,17.46,0,38.93s15.02,38.92,33.49,38.92h41.54c18.46,0,33.49-17.46,33.49-38.92S93.49,0,75.02,0ZM40.88,74.01c-13.83-3.62-23.86-18.37-23.86-35.08S27.05,7.46,40.88,3.84l3.27-.86h3.75c-.5.24-1,.49-1.49.77-5.65,3.12-10.44,8.02-13.83,14.15-3.46,6.27-5.29,13.54-5.29,21.02s1.83,14.75,5.29,21.02c3.39,6.14,8.17,11.03,13.83,14.15.49.27.99.52,1.49.77h-3.75l-3.27-.86ZM62.07,3.02c-.26.13-.53.26-.79.4h-.01s-.73.4-.73.4c-1.99,1.11-3.87,2.44-5.63,3.98-.59.51-1.16,1.05-1.71,1.6l-1.06,1.06.02.02c-6.77,7.36-10.63,17.63-10.63,28.45s3.86,21.1,10.63,28.45l-.02.02,1.06,1.06c2.22,2.22,4.7,4.1,7.34,5.58l.73.41h.01c.26.13.52.26.79.39-2.54.13-5.1-.12-7.56-.73-2.29-.56-4.52-1.44-6.65-2.62-10.68-5.9-17.58-18.68-17.58-32.56s6.9-26.66,17.58-32.56c2.13-1.17,4.37-2.05,6.65-2.62,2.05-.51,4.16-.76,6.27-.76.43,0,.86.01,1.29.03ZM61.27,71.01s-.07-.04-.1-.06c-.07-.04-.14-.09-.21-.13-.2-.12-.4-.25-.6-.38-.08-.05-.15-.1-.23-.15-.26-.17-.51-.34-.77-.52-.01,0-.02-.01-.03-.02-.25-.17-.49-.35-.73-.53-.07-.06-.15-.11-.22-.17-.19-.15-.38-.3-.57-.45-.06-.05-.13-.1-.19-.15-.24-.2-.49-.4-.72-.61-.04-.04-.08-.07-.12-.11-.14-.12-.27-.25-.41-.37,6.76-7.35,10.6-17.62,10.6-28.42s-3.85-21.07-10.6-28.43c.13-.12.27-.24.4-.36.04-.04.09-.08.13-.12.24-.21.48-.41.72-.61.06-.05.13-.1.2-.16.19-.15.37-.3.56-.44.07-.06.15-.12.22-.17.24-.18.48-.36.72-.53.02-.01.03-.02.05-.03.25-.18.5-.35.75-.51.08-.05.16-.1.24-.16.19-.13.39-.25.58-.37.08-.05.15-.09.23-.14.03-.02.07-.04.1-.06,10.2,6.09,16.74,18.58,16.74,32.08s-6.55,25.99-16.74,32.08ZM44.52,38.93c0-10.02,3.53-19.51,9.73-26.31,6.2,6.8,9.73,16.3,9.73,26.31s-3.53,19.51-9.73,26.31c-6.2-6.8-9.73-16.29-9.73-26.31ZM67.9,73.87c-1.2-.34-2.39-.77-3.56-1.28,4.6-3.11,8.52-7.45,11.41-12.71,3.44-6.25,5.26-13.5,5.26-20.96s-1.82-14.71-5.26-20.96c-2.89-5.25-6.8-9.6-11.41-12.71,1.17-.51,2.36-.94,3.56-1.28,13.57,3.83,23.38,18.45,23.38,34.95s-9.81,31.11-23.38,34.95ZM2.99,38.93C2.99,19.11,16.67,2.99,33.49,2.99c.37,0,.74,0,1.11.02-5.11,2.49-9.66,6.45-13.17,11.51-4.77,6.88-7.39,15.55-7.39,24.41s2.63,17.52,7.39,24.4c3.51,5.06,8.06,9.02,13.17,11.51-.37.02-.74.02-1.11.02-16.82,0-30.5-16.12-30.5-35.94ZM75.02,74.86c-.43,0-.87-.01-1.3-.03,5.11-2.5,9.68-6.47,13.18-11.55,4.75-6.87,7.36-15.52,7.36-24.35s-2.61-17.48-7.36-24.36c-3.51-5.08-8.07-9.05-13.18-11.55.43-.02.87-.03,1.3-.03,16.82,0,30.5,16.12,30.5,35.94s-13.68,35.94-30.5,35.94Z"/>
      <g>
        <path d="M132.13,35.31c-2.12,0-3.96-.46-5.54-1.37-1.58-.91-2.8-2.2-3.68-3.86-.87-1.66-1.31-3.6-1.31-5.81v-8.49c0-2.22.44-4.16,1.31-5.82s2.1-2.94,3.68-3.85c1.58-.91,3.43-1.37,5.54-1.37s3.96.46,5.54,1.37c1.58.91,2.8,2.2,3.68,3.85s1.31,3.59,1.31,5.82v8.49c0,2.21-.44,4.15-1.31,5.81-.87,1.66-2.1,2.95-3.68,3.86s-3.43,1.37-5.54,1.37ZM132.13,31.17c1.88,0,3.39-.62,4.52-1.85,1.13-1.24,1.7-2.87,1.7-4.9v-8.78c0-2.05-.57-3.68-1.7-4.91s-2.64-1.84-4.52-1.84-3.37.61-4.51,1.84c-1.14,1.23-1.71,2.87-1.71,4.91v8.78c0,2.03.57,3.67,1.71,4.9,1.14,1.24,2.64,1.85,4.51,1.85Z"/>
        <path d="M158.43,35.31c-2.09,0-3.91-.46-5.48-1.39-1.57-.93-2.78-2.23-3.65-3.9-.87-1.67-1.3-3.63-1.3-5.87v-8.22c0-2.25.43-4.22,1.3-5.89s2.08-2.98,3.65-3.9c1.57-.93,3.39-1.39,5.48-1.39,1.73,0,3.31.37,4.75,1.11,1.44.74,2.64,1.78,3.61,3.11.97,1.33,1.62,2.89,1.97,4.68h-4.3c-.26-.96-.7-1.8-1.31-2.52-.61-.72-1.33-1.28-2.15-1.68-.82-.4-1.68-.6-2.55-.6-1.84,0-3.32.65-4.44,1.95-1.12,1.3-1.68,3.01-1.68,5.14v8.22c0,2.13.56,3.84,1.68,5.13,1.12,1.29,2.6,1.94,4.44,1.94,1.3,0,2.53-.41,3.69-1.24s1.93-2.01,2.33-3.56h4.3c-.34,1.79-1,3.34-1.98,4.68-.98,1.33-2.18,2.37-3.6,3.11-1.43.74-3.01,1.11-4.74,1.11Z"/>
        <path d="M174.31,35V5.05h4.2v29.95h-4.2ZM176.35,9.05v-4h17.2v4h-17.2ZM176.35,22.13v-4h14.93v4h-14.93ZM176.35,35v-4h17.2v4h-17.2Z"/>
        <path d="M196.64,35l11.04-29.95h3.58l11.04,29.95h-4.53l-8.3-24.16-8.3,24.16h-4.53ZM201.73,28.43v-4h15.76v4h-15.76Z"/>
        <path d="M226.84,34.98V5.05h3.81l14.65,23.15-.5.54V5.05h4.16v29.93h-3.85l-14.61-22.8.5-.54v23.34h-4.16Z"/>
        <path d="M260.58,5.05v29.95h-4.2V5.05h4.2Z"/>
        <path d="M277.8,35.31c-2.09,0-3.91-.46-5.48-1.39-1.57-.93-2.78-2.23-3.65-3.9-.87-1.67-1.3-3.63-1.3-5.87v-8.22c0-2.25.43-4.21,1.3-5.89s2.08-2.98,3.65-3.9c1.57-.93,3.39-1.39,5.48-1.39,1.73,0,3.31.37,4.75,1.11,1.44.74,2.64,1.78,3.61,3.11.97,1.33,1.62,2.89,1.97,4.68h-4.3c-.26-.96-.7-1.8-1.31-2.52s-1.33-1.28-2.15-1.68-1.68-.6-2.55-.6c-1.84,0-3.32.65-4.44,1.95-1.12,1.3-1.68,3.01-1.68,5.14v8.22c0,2.13.56,3.84,1.68,5.13,1.12,1.29,2.6,1.94,4.44,1.94,1.3,0,2.53-.41,3.69-1.24s1.93-2.01,2.33-3.56h4.3c-.34,1.79-1,3.34-1.98,4.68-.98,1.33-2.18,2.37-3.6,3.11-1.43.74-3.01,1.11-4.74,1.11Z"/>
        <path d="M119.33,71l11.04-29.95h3.58l11.04,29.95h-4.53l-8.3-24.16-8.3,24.16h-4.53ZM124.42,64.43v-4h15.76v4h-15.76Z"/>
        <path d="M157.98,54.88h10.38v5.23c0,2.25-.44,4.22-1.31,5.9s-2.09,2.99-3.66,3.91c-1.57.93-3.41,1.39-5.52,1.39s-3.99-.44-5.58-1.31c-1.59-.87-2.83-2.1-3.71-3.69s-1.32-3.44-1.32-5.55v-8.84c0-2.25.44-4.21,1.31-5.89s2.09-2.98,3.66-3.9c1.57-.93,3.41-1.39,5.52-1.39,1.74,0,3.33.37,4.77,1.11,1.43.74,2.64,1.78,3.62,3.11.97,1.33,1.63,2.89,1.98,4.68h-4.55c-.38-1.55-1.13-2.74-2.25-3.56s-2.3-1.24-3.56-1.24c-1.87,0-3.37.65-4.49,1.95s-1.69,3.01-1.69,5.14v8.84c0,1.95.58,3.51,1.73,4.69,1.15,1.17,2.68,1.76,4.57,1.76s3.36-.62,4.49-1.85c1.13-1.24,1.69-2.96,1.69-5.17v-1.3h-6.08v-4.02Z"/>
        <path d="M174.75,71v-29.95h4.2v29.95h-4.2ZM176.78,45.05v-4h17.2v4h-17.2ZM176.78,58.13v-4h14.93v4h-14.93ZM176.78,71v-4h17.2v4h-17.2Z"/>
        <path d="M199.96,70.98v-29.93h3.81l14.65,23.15-.5.54v-23.69h4.16v29.93h-3.85l-14.61-22.8.5-.54v23.34h-4.16Z"/>
        <path d="M239.3,71.31c-2.09,0-3.91-.46-5.48-1.39-1.57-.93-2.78-2.23-3.65-3.9-.87-1.67-1.3-3.63-1.3-5.87v-8.22c0-2.25.43-4.21,1.3-5.89s2.08-2.98,3.65-3.9c1.57-.93,3.39-1.39,5.48-1.39,1.73,0,3.31.37,4.75,1.11,1.44.74,2.64,1.78,3.61,3.11.97,1.33,1.62,2.89,1.97,4.68h-4.3c-.26-.96-.7-1.8-1.31-2.52s-1.33-1.28-2.15-1.68-1.68-.6-2.55-.6c-1.84,0-3.32.65-4.44,1.95-1.12,1.3-1.68,3.01-1.68,5.14v8.22c0,2.13.56,3.84,1.68,5.13,1.12,1.29,2.6,1.94,4.44,1.94,1.3,0,2.53-.41,3.69-1.24s1.93-2.01,2.33-3.56h4.3c-.34,1.79-1,3.34-1.98,4.68-.98,1.33-2.18,2.37-3.6,3.11-1.43.74-3.01,1.11-4.74,1.11Z"/>
        <path d="M273.72,41.05l-9.12,17.78v12.17h-4.2v-12.17l-9.13-17.78h4.68l6.55,13.51,6.55-13.51h4.68Z"/>
      </g>
    </g>
  </g>
</svg>
